<svg width="1000" height="865.9495242035581" viewBox="0 0 1000 865.9495242035581" xmlns="http://www.w3.org/2000/svg"><defs/><path fill="#043343" d="M 0 0 L 1000 0 L 1000 1000 L 0 1000 Z"/><path fill="#b99581" transform="matrix(1.4480761274306992 0 0 1.4480761274306992 -3.7190318576748016 -18.23669838642946)" d="M 589.55397142857 520.89374285714 L 347.85397142857 520.89374285714 L 484.45397142857 338.89374285714 Z"/><path fill="#b99581" transform="matrix(1.4480761274306992 0 0 1.4480761274306992 -3.7190318576748016 -18.23669838642946)" d="M 106.15397142857 520.89374285714 L 347.85397142857 520.89374285714 L 211.25397142857 338.89374285714 Z"/><g opacity="0.48" transform="matrix(1.4480761274306992 0 0 1.4480761274306992 -3.7190318576748016 -18.23669838642946)"><path fill="#b99581" d="M 106.15397142857 520.89374285714 L 204.25397142857 520.89374285714 L 347.85397142857 281.69374285714 L 347.85397142857 102.29374285714 Z"/></g><path fill="#b99581" transform="matrix(1.4480761274306992 0 0 1.4480761274306992 -3.7190318576748016 -18.23669838642946)" d="M 589.55397142857 520.89374285714 L 491.45397142857 520.89374285714 L 347.85397142857 281.69374285714 L 347.85397142857 102.29374285714 Z"/></svg>